<svg width="1200" height="800" xmlns="http://www.w3.org/2000/svg">
  <!-- Background gradient -->
  <defs>
    <linearGradient id="bg-gradient" x1="0%" y1="0%" x2="100%" y2="100%">
      <stop offset="0%" stop-color="#2c3e50" />
      <stop offset="100%" stop-color="#34495e" />
    </linearGradient>
  </defs>
  
  <!-- Background -->
  <rect width="1200" height="800" fill="url(#bg-gradient)"/>
  
  <!-- Abstract car shape -->
  <g transform="translate(200, 300)" opacity="0.2">
    <!-- Car body -->
    <rect x="0" y="100" width="800" height="150" rx="20" fill="#ecf0f1"/>
    
    <!-- Car top -->
    <path d="M150,100 L250,20 L550,20 L650,100" fill="#ecf0f1"/>
    
    <!-- Windows -->
    <path d="M170,90 L260,30 L540,30 L630,90" fill="#3498db" opacity="0.6"/>
    
    <!-- Wheels -->
    <circle cx="200" cy="250" r="60" fill="#34495e" stroke="#ecf0f1" stroke-width="10"/>
    <circle cx="600" cy="250" r="60" fill="#34495e" stroke="#ecf0f1" stroke-width="10"/>
    
    <!-- Headlights -->
    <circle cx="50" cy="150" r="30" fill="#f1c40f" opacity="0.8"/>
    <circle cx="750" cy="150" r="30" fill="#e74c3c" opacity="0.8"/>
  </g>
  
  <!-- Abstract tools pattern -->
  <g opacity="0.1">
    <!-- Wrenches -->
    <g transform="translate(100, 100) rotate(45)">
      <rect x="0" y="0" width="100" height="20" rx="10" fill="#ecf0f1"/>
      <circle cx="20" cy="10" r="15" fill="#34495e" stroke="#ecf0f1" stroke-width="5"/>
      <circle cx="80" cy="10" r="15" fill="#34495e" stroke="#ecf0f1" stroke-width="5"/>
    </g>
    
    <g transform="translate(900, 200) rotate(-30)">
      <rect x="0" y="0" width="100" height="20" rx="10" fill="#ecf0f1"/>
      <circle cx="20" cy="10" r="15" fill="#34495e" stroke="#ecf0f1" stroke-width="5"/>
      <circle cx="80" cy="10" r="15" fill="#34495e" stroke="#ecf0f1" stroke-width="5"/>
    </g>
    
    <!-- Screwdrivers -->
    <g transform="translate(300, 600) rotate(15)">
      <rect x="0" y="0" width="120" height="10" rx="5" fill="#ecf0f1"/>
      <rect x="0" y="0" width="30" height="10" rx="5" fill="#e74c3c"/>
      <polygon points="120,5 140,0 140,10" fill="#ecf0f1"/>
    </g>
    
    <g transform="translate(800, 500) rotate(-60)">
      <rect x="0" y="0" width="120" height="10" rx="5" fill="#ecf0f1"/>
      <rect x="0" y="0" width="30" height="10" rx="5" fill="#e74c3c"/>
      <polygon points="120,5 140,0 140,10" fill="#ecf0f1"/>
    </g>
    
    <!-- Gears -->
    <circle cx="200" cy="400" r="50" fill="none" stroke="#ecf0f1" stroke-width="5"/>
    <circle cx="200" cy="400" r="40" fill="none" stroke="#ecf0f1" stroke-width="3"/>
    <circle cx="200" cy="400" r="10" fill="#ecf0f1"/>
    
    <circle cx="1000" cy="300" r="60" fill="none" stroke="#ecf0f1" stroke-width="5"/>
    <circle cx="1000" cy="300" r="50" fill="none" stroke="#ecf0f1" stroke-width="3"/>
    <circle cx="1000" cy="300" r="15" fill="#ecf0f1"/>
  </g>
  
  <!-- Dots pattern -->
  <g fill="#ecf0f1" opacity="0.05">
    <circle cx="100" cy="100" r="3"/>
    <circle cx="150" cy="100" r="3"/>
    <circle cx="200" cy="100" r="3"/>
    <circle cx="250" cy="100" r="3"/>
    <circle cx="300" cy="100" r="3"/>
    <circle cx="350" cy="100" r="3"/>
    <circle cx="400" cy="100" r="3"/>
    <circle cx="450" cy="100" r="3"/>
    <circle cx="500" cy="100" r="3"/>
    <circle cx="550" cy="100" r="3"/>
    <circle cx="600" cy="100" r="3"/>
    <circle cx="650" cy="100" r="3"/>
    <circle cx="700" cy="100" r="3"/>
    <circle cx="750" cy="100" r="3"/>
    <circle cx="800" cy="100" r="3"/>
    <circle cx="850" cy="100" r="3"/>
    <circle cx="900" cy="100" r="3"/>
    <circle cx="950" cy="100" r="3"/>
    <circle cx="1000" cy="100" r="3"/>
    <circle cx="1050" cy="100" r="3"/>
    <circle cx="1100" cy="100" r="3"/>
    
    <circle cx="100" cy="150" r="3"/>
    <circle cx="150" cy="150" r="3"/>
    <circle cx="200" cy="150" r="3"/>
    <circle cx="250" cy="150" r="3"/>
    <circle cx="300" cy="150" r="3"/>
    <circle cx="350" cy="150" r="3"/>
    <circle cx="400" cy="150" r="3"/>
    <circle cx="450" cy="150" r="3"/>
    <circle cx="500" cy="150" r="3"/>
    <circle cx="550" cy="150" r="3"/>
    <circle cx="600" cy="150" r="3"/>
    <circle cx="650" cy="150" r="3"/>
    <circle cx="700" cy="150" r="3"/>
    <circle cx="750" cy="150" r="3"/>
    <circle cx="800" cy="150" r="3"/>
    <circle cx="850" cy="150" r="3"/>
    <circle cx="900" cy="150" r="3"/>
    <circle cx="950" cy="150" r="3"/>
    <circle cx="1000" cy="150" r="3"/>
    <circle cx="1050" cy="150" r="3"/>
    <circle cx="1100" cy="150" r="3"/>
    
    <!-- Repeat for more rows -->
    <circle cx="100" cy="200" r="3"/>
    <circle cx="200" cy="200" r="3"/>
    <circle cx="300" cy="200" r="3"/>
    <circle cx="400" cy="200" r="3"/>
    <circle cx="500" cy="200" r="3"/>
    <circle cx="600" cy="200" r="3"/>
    <circle cx="700" cy="200" r="3"/>
    <circle cx="800" cy="200" r="3"/>
    <circle cx="900" cy="200" r="3"/>
    <circle cx="1000" cy="200" r="3"/>
    <circle cx="1100" cy="200" r="3"/>
    
    <circle cx="100" cy="300" r="3"/>
    <circle cx="200" cy="300" r="3"/>
    <circle cx="300" cy="300" r="3"/>
    <circle cx="400" cy="300" r="3"/>
    <circle cx="500" cy="300" r="3"/>
    <circle cx="600" cy="300" r="3"/>
    <circle cx="700" cy="300" r="3"/>
    <circle cx="800" cy="300" r="3"/>
    <circle cx="900" cy="300" r="3"/>
    <circle cx="1000" cy="300" r="3"/>
    <circle cx="1100" cy="300" r="3"/>
    
    <circle cx="100" cy="400" r="3"/>
    <circle cx="200" cy="400" r="3"/>
    <circle cx="300" cy="400" r="3"/>
    <circle cx="400" cy="400" r="3"/>
    <circle cx="500" cy="400" r="3"/>
    <circle cx="600" cy="400" r="3"/>
    <circle cx="700" cy="400" r="3"/>
    <circle cx="800" cy="400" r="3"/>
    <circle cx="900" cy="400" r="3"/>
    <circle cx="1000" cy="400" r="3"/>
    <circle cx="1100" cy="400" r="3"/>
    
    <circle cx="100" cy="500" r="3"/>
    <circle cx="200" cy="500" r="3"/>
    <circle cx="300" cy="500" r="3"/>
    <circle cx="400" cy="500" r="3"/>
    <circle cx="500" cy="500" r="3"/>
    <circle cx="600" cy="500" r="3"/>
    <circle cx="700" cy="500" r="3"/>
    <circle cx="800" cy="500" r="3"/>
    <circle cx="900" cy="500" r="3"/>
    <circle cx="1000" cy="500" r="3"/>
    <circle cx="1100" cy="500" r="3"/>
    
    <circle cx="100" cy="600" r="3"/>
    <circle cx="200" cy="600" r="3"/>
    <circle cx="300" cy="600" r="3"/>
    <circle cx="400" cy="600" r="3"/>
    <circle cx="500" cy="600" r="3"/>
    <circle cx="600" cy="600" r="3"/>
    <circle cx="700" cy="600" r="3"/>
    <circle cx="800" cy="600" r="3"/>
    <circle cx="900" cy="600" r="3"/>
    <circle cx="1000" cy="600" r="3"/>
    <circle cx="1100" cy="600" r="3"/>
    
    <circle cx="100" cy="700" r="3"/>
    <circle cx="200" cy="700" r="3"/>
    <circle cx="300" cy="700" r="3"/>
    <circle cx="400" cy="700" r="3"/>
    <circle cx="500" cy="700" r="3"/>
    <circle cx="600" cy="700" r="3"/>
    <circle cx="700" cy="700" r="3"/>
    <circle cx="800" cy="700" r="3"/>
    <circle cx="900" cy="700" r="3"/>
    <circle cx="1000" cy="700" r="3"/>
    <circle cx="1100" cy="700" r="3"/>
  </g>
</svg>