<svg xmlns="http://www.w3.org/2000/svg" viewBox="0 0 100 100" width="100" height="100">
  <!-- Background Circle -->
  <circle cx="50" cy="50" r="50" fill="#5E5E5E"/>
  
  <!-- Inner Circle -->
  <circle cx="50" cy="50" r="45" fill="#FFFFFF"/>
  
  <!-- Woman Avatar -->
  <g transform="translate(25, 15)">
    <!-- Hair Back -->
    <path d="M0 40 Q25 0 50 40" fill="#8D6E63"/>
    
    <!-- Face -->
    <ellipse cx="25" cy="35" rx="20" ry="25" fill="#FFCCBC"/>
    
    <!-- Hair Front -->
    <path d="M5 35 Q5 15 25 15 Q45 15 45 35" fill="#8D6E63"/>
    <path d="M5 35 Q5 20 25 20 Q45 20 45 35" fill="#8D6E63"/>
    
    <!-- Eyes -->
    <ellipse cx="17" cy="32" rx="3" ry="2" fill="#5D4037"/>
    <ellipse cx="33" cy="32" rx="3" ry="2" fill="#5D4037"/>
    
    <!-- Eyebrows -->
    <path d="M14 28 Q17 26 20 28" stroke="#5D4037" stroke-width="1" fill="transparent"/>
    <path d="M30 28 Q33 26 36 28" stroke="#5D4037" stroke-width="1" fill="transparent"/>
    
    <!-- Nose -->
    <path d="M25 34 Q26 38 25 40" stroke="#EFEBE9" stroke-width="1" fill="transparent"/>
    
    <!-- Mouth -->
    <path d="M20 45 Q25 48 30 45" stroke="#5D4037" stroke-width="1" fill="transparent"/>
    
    <!-- Neck -->
    <rect x="20" y="55" width="10" height="10" fill="#FFCCBC"/>
    
    <!-- Clothes -->
    <path d="M10 65 L20 65 L20 55 L30 55 L30 65 L40 65 L45 85 L5 85 Z" fill="#FFC300"/>
    
    <!-- Earrings -->
    <circle cx="7" cy="35" r="2" fill="#FFC300"/>
    <circle cx="43" cy="35" r="2" fill="#FFC300"/>
  </g>
</svg>