<svg xmlns="http://www.w3.org/2000/svg" viewBox="0 0 100 100" width="100" height="100">
  <!-- Background Circle -->
  <circle cx="50" cy="50" r="50" fill="#5E5E5E"/>
  
  <!-- Inner Circle -->
  <circle cx="50" cy="50" r="45" fill="#FFFFFF"/>
  
  <!-- Woman Avatar -->
  <g transform="translate(25, 15)">
    <!-- Hair -->
    <path d="M0 35 Q0 10 25 10 Q50 10 50 35" fill="#FFCC80"/>
    <path d="M0 35 Q0 15 25 15 Q50 15 50 35" fill="#FFCC80"/>
    
    <!-- Face -->
    <ellipse cx="25" cy="35" rx="20" ry="25" fill="#FFE0B2"/>
    
    <!-- Eyes -->
    <ellipse cx="17" cy="32" rx="3" ry="2" fill="#795548"/>
    <ellipse cx="33" cy="32" rx="3" ry="2" fill="#795548"/>
    
    <!-- Eyebrows -->
    <path d="M14 28 Q17 26 20 28" stroke="#795548" stroke-width="1" fill="transparent"/>
    <path d="M30 28 Q33 26 36 28" stroke="#795548" stroke-width="1" fill="transparent"/>
    
    <!-- Nose -->
    <path d="M25 34 Q26 38 25 40" stroke="#FFCC80" stroke-width="1" fill="transparent"/>
    
    <!-- Mouth -->
    <path d="M20 45 Q25 48 30 45" stroke="#795548" stroke-width="1" fill="transparent"/>
    
    <!-- Neck -->
    <rect x="20" y="55" width="10" height="10" fill="#FFE0B2"/>
    
    <!-- Clothes -->
    <path d="M10 65 L20 65 L20 55 L30 55 L30 65 L40 65 L45 85 L5 85 Z" fill="#5E5E5E"/>
    
    <!-- Necklace -->
    <path d="M20 60 Q25 65 30 60" stroke="#FFC300" stroke-width="2" fill="transparent"/>
    <circle cx="25" cy="63" r="2" fill="#FFC300"/>
    
    <!-- Earrings -->
    <circle cx="5" cy="35" r="2" fill="#FFC300"/>
    <circle cx="45" cy="35" r="2" fill="#FFC300"/>
    
    <!-- Hair Highlights -->
    <path d="M10 25 Q15 20 20 25" stroke="#FFE0B2" stroke-width="2" fill="transparent"/>
    <path d="M30 25 Q35 20 40 25" stroke="#FFE0B2" stroke-width="2" fill="transparent"/>
  </g>
</svg>